<svg width="38" height="34" viewBox="0 0 38 34" fill="none" xmlns="http://www.w3.org/2000/svg">
<path d="M19.0001 0.5C19.0001 0.5 7.65908 10.29 1.32125 15.592C0.949082 15.9293 0.666748 16.4207 0.666748 17C0.666748 18.0138 1.48625 18.8333 2.50008 18.8333H6.16675V31.6667C6.16675 32.6805 6.98625 33.5 8.00008 33.5H13.5001C14.5139 33.5 15.3334 32.6787 15.3334 31.6667V24.3333H22.6667V31.6667C22.6667 32.6787 23.4862 33.5 24.5001 33.5H30.0001C31.0139 33.5 31.8334 32.6805 31.8334 31.6667V18.8333H35.5001C36.5139 18.8333 37.3334 18.0138 37.3334 17C37.3334 16.4207 37.0511 15.9293 36.6312 15.592C30.3374 10.29 19.0001 0.5 19.0001 0.5Z" fill="#FBFBFB"/>
</svg>
