<svg width="40" height="40" viewBox="0 0 40 40" fill="none" xmlns="http://www.w3.org/2000/svg">
<path d="M3.74878 0C1.67838 0 0 1.67655 0 3.74464V36.1982C0 38.2664 1.67838 39.9429 3.74878 39.9429H6.24796C8.31833 39.9429 9.99674 38.2664 9.99674 36.1982V3.74464C9.99674 1.67655 8.31833 0 6.24796 0H3.74878ZM16.2447 0C14.1743 0 12.4959 1.67655 12.4959 3.74464V36.1982C12.4959 38.2664 14.1743 39.9429 16.2447 39.9429H18.7439C20.8143 39.9429 22.4925 38.2664 22.4925 36.1982V3.74464C22.4925 1.67655 20.8143 0 18.7439 0H16.2447ZM34.2948 10.3922C33.8148 8.30476 31.6833 7.04394 29.62 7.62728L27.7573 8.15401C25.8693 8.68788 24.7128 10.586 25.1055 12.5065L30.115 37.0037C30.5435 39.0984 32.6378 40.4104 34.712 39.8834L37.1745 39.2577C39.148 38.7562 40.36 36.7729 39.904 34.7904L34.2948 10.3922Z" fill="#FBFBFB"/>
</svg>
