<svg width="45" height="45" viewBox="0 0 45 45" fill="none" xmlns="http://www.w3.org/2000/svg">
<path d="M42.1875 17.8125H38.6963C38.3492 16.6129 37.8693 15.4557 37.2656 14.3625L39.735 11.895C39.9964 11.6338 40.2037 11.3237 40.3451 10.9823C40.4866 10.641 40.5594 10.2751 40.5594 9.90563C40.5594 9.53613 40.4866 9.17026 40.3451 8.82891C40.2037 8.48757 39.9964 8.17744 39.735 7.91625L37.0819 5.265C36.5545 4.73774 35.8392 4.44154 35.0934 4.44154C34.3477 4.44154 33.6324 4.73774 33.105 5.265L30.6337 7.73438C29.542 7.13081 28.386 6.65157 27.1875 6.30562V2.8125C27.1875 2.06658 26.8912 1.35121 26.3637 0.823762C25.8363 0.296316 25.1209 0 24.375 0L20.625 0C19.8791 0 19.1637 0.296316 18.6363 0.823762C18.1088 1.35121 17.8125 2.06658 17.8125 2.8125V6.30562C16.6128 6.65159 15.4556 7.13082 14.3625 7.73438L11.8931 5.265C11.3657 4.73774 10.6505 4.44154 9.90469 4.44154C9.15891 4.44154 8.44367 4.73774 7.91625 5.265L5.26312 7.91625C5.00177 8.17744 4.79444 8.48757 4.65299 8.82891C4.51153 9.17026 4.43873 9.53613 4.43873 9.90563C4.43873 10.2751 4.51153 10.641 4.65299 10.9823C4.79444 11.3237 5.00177 11.6338 5.26312 11.895L7.7325 14.3644C7.12954 15.4571 6.65033 16.6136 6.30375 17.8125H2.8125C2.06658 17.8125 1.35121 18.1088 0.823762 18.6363C0.296316 19.1637 0 19.8791 0 20.625L0 24.375C0 25.1209 0.296316 25.8363 0.823762 26.3637C1.35121 26.8912 2.06658 27.1875 2.8125 27.1875H6.30375C6.65033 28.387 7.12954 29.5442 7.7325 30.6375L5.26125 33.1069C4.99989 33.3681 4.79257 33.6782 4.65111 34.0195C4.50966 34.3609 4.43685 34.7268 4.43685 35.0963C4.43685 35.4657 4.50966 35.8316 4.65111 36.173C4.79257 36.5143 4.99989 36.8244 5.26125 37.0856L7.9125 39.7369C8.45028 40.2449 9.16206 40.528 9.90188 40.528C10.6417 40.528 11.3535 40.2449 11.8912 39.7369L14.3625 37.2656C15.4554 37.8704 16.6126 38.3509 17.8125 38.6981V42.1875C17.8125 42.9334 18.1088 43.6488 18.6363 44.1762C19.1637 44.7037 19.8791 45 20.625 45H24.375C25.1209 45 25.8363 44.7037 26.3637 44.1762C26.8912 43.6488 27.1875 42.9334 27.1875 42.1875V38.6981C28.3863 38.3504 29.5428 37.8706 30.6356 37.2675L33.1069 39.7388C33.6343 40.266 34.3495 40.5622 35.0953 40.5622C35.8411 40.5622 36.5563 40.266 37.0837 39.7388L39.735 37.0875C39.9964 36.8263 40.2037 36.5162 40.3451 36.1748C40.4866 35.8335 40.5594 35.4676 40.5594 35.0981C40.5594 34.7286 40.4866 34.3628 40.3451 34.0214C40.2037 33.6801 39.9964 33.3699 39.735 33.1088L37.2656 30.6375C37.87 29.5446 38.3498 28.3874 38.6963 27.1875H42.1875C42.9334 27.1875 43.6488 26.8912 44.1762 26.3637C44.7037 25.8363 45 25.1209 45 24.375V20.625C45 19.8791 44.7037 19.1637 44.1762 18.6363C43.6488 18.1088 42.9334 17.8125 42.1875 17.8125ZM22.5 31.875C20.6458 31.875 18.8332 31.3252 17.2915 30.295C15.7498 29.2649 14.5482 27.8007 13.8386 26.0877C13.1291 24.3746 12.9434 22.4896 13.3051 20.671C13.6669 18.8525 14.5598 17.182 15.8709 15.8709C17.182 14.5598 18.8525 13.6669 20.671 13.3051C22.4896 12.9434 24.3746 13.1291 26.0877 13.8386C27.8007 14.5482 29.2649 15.7498 30.295 17.2915C31.3252 18.8332 31.875 20.6458 31.875 22.5C31.872 24.9855 30.8833 27.3683 29.1258 29.1258C27.3683 30.8833 24.9855 31.872 22.5 31.875Z" fill="#FBFBFB"/>
</svg>
