<svg width="36" height="36" viewBox="0 0 36 36" fill="none" xmlns="http://www.w3.org/2000/svg">
<path fill-rule="evenodd" clip-rule="evenodd" d="M19.0903 0.710286L23.7105 10.5195C23.8804 10.89 24.2238 11.1515 24.6261 11.2165L34.9573 12.7895C35.4243 12.8801 35.8037 13.2202 35.9446 13.6746C36.0855 14.129 35.9651 14.624 35.6312 14.963L28.1556 22.5983C27.8669 22.8977 27.7372 23.3161 27.8058 23.7262L29.5706 34.5076C29.6669 34.971 29.4884 35.4486 29.1118 35.7353C28.7351 36.0221 28.2273 36.067 27.8062 35.8508L18.5657 30.7605C18.2137 30.5654 17.7859 30.5654 17.4339 30.7605L8.19348 35.8508C7.77236 36.067 7.26451 36.0221 6.88787 35.7353C6.51123 35.4486 6.33276 34.971 6.42903 34.5076L8.1938 23.7262C8.26247 23.3161 8.13272 22.8977 7.84406 22.5983L0.368382 14.963C0.0345317 14.624 -0.0858752 14.129 0.0550285 13.6746C0.195932 13.2202 0.575312 12.8801 1.04235 12.7896L11.3735 11.2165C11.7759 11.1515 12.1193 10.89 12.2891 10.5195L16.9093 0.710286C17.1002 0.278516 17.5278 -3.8147e-06 17.9998 -3.8147e-06C18.4719 -3.8147e-06 18.8995 0.278516 19.0903 0.710286Z" fill="#F6AB27"/>
<path fill-rule="evenodd" clip-rule="evenodd" d="M22.5868 8.13725C19.6069 9.73058 16.8553 11.7181 14.4061 14.0462C11.7958 16.5451 9.58143 19.4272 7.83923 22.5931L0.366178 14.9648C0.0323432 14.6257 -0.0877397 14.1304 0.0537373 13.676C0.195214 13.2217 0.575283 12.8821 1.04263 12.7924L11.371 11.2159C11.7728 11.1491 12.1162 10.8893 12.2896 10.5207L16.9075 0.707593C17.1004 0.277086 17.5282 1.90735e-05 17.9999 1.90735e-05C18.4717 1.90735e-05 18.8994 0.277086 19.0923 0.707593L22.5868 8.13725Z" fill="#F4CD1E"/>
</svg>
